<svg version="1.1" id="Layer_1" xmlns="http://www.w3.org/2000/svg" xmlns:xlink="http://www.w3.org/1999/xlink" x="0px" y="0px"
	 width="100%" viewBox="0 0 1024 704" enable-background="new 0 0 1024 704" xml:space="preserve">
<path fill="#000000" opacity="1.000000" stroke="none" 
	d="
M699.993042,300.985413 
	C703.824463,300.993774 707.169434,301.187897 710.487183,300.968536 
	C714.868286,300.678925 716.432434,302.515686 716.195129,306.835785 
	C715.325378,322.671967 713.328369,338.342499 708.907715,353.588257 
	C699.962952,384.436890 684.109070,411.310150 661.471985,434.094482 
	C651.578918,444.051941 640.556091,452.679901 628.687988,460.188507 
	C627.097839,461.194519 625.642029,462.801697 623.337219,462.451294 
	C622.620361,460.179108 624.335388,458.967773 625.460693,457.744995 
	C634.258057,448.184998 643.232544,438.787292 651.986694,429.188416 
	C657.727905,422.893250 662.889221,416.180786 665.721008,407.936615 
	C667.641357,402.345825 666.239685,397.639648 662.052673,393.911469 
	C657.887268,390.202545 652.922119,389.059814 647.682983,391.676605 
	C636.494507,397.264954 625.732056,403.614380 615.322144,410.533051 
	C589.335083,427.804749 565.794373,447.752533 547.461609,473.303467 
	C544.646179,477.227356 541.892700,481.211273 539.383667,485.333588 
	C537.821045,487.900818 535.884094,489.063446 532.893311,489.043427 
	C519.895935,488.956482 506.897888,488.986847 493.900085,488.959839 
	C490.957001,488.953735 488.489868,488.342041 486.745789,485.437347 
	C474.474579,464.999878 458.763367,447.409821 441.821655,430.753754 
	C418.513885,407.838898 399.613220,381.849396 388.421692,350.798187 
	C383.141205,336.147247 380.212677,320.994232 379.119720,305.464203 
	C378.907288,302.446014 380.105743,301.091064 383.035736,301.071838 
	C386.368408,301.049988 389.701111,301.001984 393.033783,301.001740 
	C495.187347,300.994141 597.340881,300.990997 699.993042,300.985413 
z"/>
<path fill="#000000" opacity="1.000000" stroke="none" 
	d="
M657.538818,411.310181 
	C651.192444,422.974945 641.387573,431.175262 632.728455,440.371735 
	C627.030518,446.423309 620.813782,452.077179 616.648315,459.407623 
	C614.052856,463.975159 611.893860,468.726990 614.981934,473.975250 
	C616.210571,476.063354 617.698486,477.604645 620.565369,477.278046 
	C651.945984,473.702911 679.989746,462.800598 702.488159,439.868500 
	C718.286194,423.765900 728.671814,404.356323 736.816833,383.514954 
	C745.392212,361.572449 749.784119,338.419647 756.916626,316.068695 
	C758.388489,311.456421 760.059875,306.907593 762.963745,302.974213 
	C764.875977,300.384186 767.136780,298.192810 771.046448,298.788849 
	C771.262207,299.576996 771.623169,300.340729 771.663025,301.120880 
	C773.510071,337.225983 772.024231,373.089325 762.072998,408.080414 
	C750.298218,449.483459 726.984375,483.150848 692.831787,509.408508 
	C666.140625,529.929504 636.526062,545.534119 606.933167,561.208374 
	C578.958923,576.025269 551.174927,591.162659 525.373718,609.642273 
	C524.046814,610.592651 522.750061,611.728577 520.812500,611.772644 
	C519.054260,610.665466 519.191528,608.715271 519.028320,606.975952 
	C514.532471,559.065735 524.640625,514.897461 553.348511,475.737488 
	C572.628662,449.437683 597.249023,428.933655 624.843872,411.874603 
	C632.206726,407.322937 639.766785,403.086151 647.294189,398.806580 
	C650.716675,396.860748 654.372559,395.249756 657.882507,398.547150 
	C661.332214,401.787842 660.156738,405.497833 658.516235,409.146088 
	C658.243286,409.752991 657.986633,410.367218 657.538818,411.310181 
z"/>
<path fill="#000000" opacity="1.000000" stroke="none" 
	d="
M257.358765,298.800354 
	C263.254456,301.103302 265.259521,306.197449 267.219604,311.112396 
	C271.669830,322.271515 274.229462,334.014282 277.287506,345.592102 
	C283.855103,370.457275 291.656982,394.807983 305.445221,416.818420 
	C326.558014,450.521210 356.994019,469.844727 396.138397,475.799896 
	C398.440521,476.150116 400.736389,476.545258 403.043549,476.857666 
	C409.748962,477.765564 413.886658,473.110107 412.296112,466.329132 
	C410.964447,460.652069 407.723602,455.956055 403.871033,451.772064 
	C397.103149,444.421967 390.073700,437.313354 383.199982,430.059845 
	C376.768890,423.273376 370.585266,416.312988 366.935638,407.493622 
	C365.602936,404.273071 365.370789,401.274811 368.060211,398.770111 
	C370.681885,396.328552 373.668182,396.301880 376.825500,397.981323 
	C420.592224,421.261414 459.234497,450.332825 484.477325,494.246704 
	C498.389404,518.449036 505.895477,544.584473 507.500336,572.555786 
	C508.076141,582.591125 507.278198,592.509155 507.195190,602.480347 
	C507.169281,605.587769 507.153564,608.788086 505.582489,611.589661 
	C503.724152,612.060303 502.570221,610.945679 501.399261,610.089172 
	C474.005310,590.053467 444.046326,574.356445 414.182312,558.500793 
	C386.957672,544.046387 359.803650,529.496704 335.116943,510.815491 
	C292.556915,478.609009 267.534149,435.980988 258.546143,383.528473 
	C254.049896,357.289185 253.101898,330.918060 254.071793,304.412689 
	C254.149979,302.276184 252.962799,299.021545 257.358765,298.800354 
z"/>
<path fill="#000000" opacity="1.000000" stroke="none" 
	d="
M370.696106,240.281006 
	C362.827423,230.119858 355.039154,220.342026 347.589630,210.312607 
	C345.179474,207.067795 342.793304,206.220032 338.766327,206.704422 
	C311.292969,210.009018 283.555298,192.724579 278.227722,164.874588 
	C274.596283,145.891006 283.685760,125.459167 301.773315,114.186363 
	C326.493347,98.779961 360.035522,104.538765 377.258362,127.396225 
	C387.768127,141.344406 390.112946,156.830215 383.888885,173.174637 
	C382.342834,177.234604 383.043213,179.430756 386.001831,182.152176 
	C421.314819,214.633713 456.539673,247.211075 491.771454,279.780823 
	C492.946075,280.866699 494.622681,281.601440 494.855469,283.892212 
	C491.873871,284.989441 488.702301,284.528412 485.673462,284.555420 
	C475.345703,284.647522 465.014893,284.381104 454.686859,284.461639 
	C451.971069,284.482819 449.984283,283.627869 447.975281,281.894897 
	C423.123505,260.457916 398.220978,239.079834 373.311066,217.710388 
	C370.408142,215.220047 367.382812,212.872406 363.763641,210.966965 
	C382.689331,234.924255 401.615021,258.881531 420.616669,282.934967 
	C413.224518,286.418762 404.903870,284.629669 400.521301,278.952515 
	C390.646118,266.160339 380.778656,253.362305 370.696106,240.281006 
z"/>
<path fill="#000000" opacity="1.000000" stroke="none" 
	d="
M566.067749,174.629700 
	C565.200195,168.108444 564.536682,162.007751 565.441223,155.839294 
	C560.452698,167.115921 560.895996,178.608582 563.759155,190.246201 
	C566.801208,202.610733 572.406677,213.980606 577.346985,225.606567 
	C580.742920,233.598251 583.663757,241.714218 584.900635,250.356110 
	C585.810852,256.716248 584.252563,262.574249 581.259094,268.125214 
	C580.164307,270.155304 578.783569,271.394012 576.606873,269.281891 
	C559.766724,252.941208 544.506714,235.446091 535.697327,213.244431 
	C525.460999,187.446777 528.109375,162.656357 541.979675,138.973785 
	C551.870972,122.085075 565.536865,108.463814 580.595398,96.171104 
	C581.458923,95.466171 582.536804,95.023865 583.460754,94.490593 
	C585.179626,95.704826 584.299561,97.102905 584.029785,98.250450 
	C581.580872,108.670906 583.486084,118.352783 588.612915,127.604195 
	C594.383301,138.016968 602.097290,147.001434 609.436951,156.258514 
	C614.098999,162.138458 618.560852,168.146210 622.411438,174.590836 
	C634.524048,194.863434 633.442749,214.758728 620.579468,234.249054 
	C613.096008,245.588013 603.890259,255.402939 593.596436,264.222473 
	C592.758057,264.940765 591.990601,265.994507 590.316711,265.312317 
	C590.361267,264.782013 590.236511,264.085388 590.489441,263.576416 
	C596.436768,251.609802 594.555847,239.923660 588.990601,228.524582 
	C584.537354,219.403290 579.677124,210.481308 575.042725,201.447708 
	C570.760132,193.100006 567.748352,184.314789 566.067749,174.629700 
z"/>
<path fill="#000000" opacity="1.000000" stroke="none" 
	d="
M731.751465,192.965485 
	C737.163635,194.046555 742.323364,194.279968 747.280762,196.384140 
	C746.829773,197.034668 746.641357,197.649628 746.284363,197.771790 
	C733.266724,202.226471 726.493713,212.393158 721.891907,224.488464 
	C718.222900,234.132080 715.008301,243.959732 711.045349,253.478088 
	C702.378357,274.294891 686.006226,283.705841 663.976318,284.335663 
	C653.794250,284.626740 643.661255,284.271210 633.632690,282.300690 
	C632.683289,282.114136 631.600281,282.292755 630.980103,281.183563 
	C630.799377,279.692932 632.045105,279.803253 632.933105,279.588104 
	C642.517212,277.265869 649.709778,271.646729 654.875549,263.404022 
	C658.147034,258.183960 661.260071,252.855774 664.236572,247.461548 
	C671.225769,234.795471 679.959167,223.697983 692.223572,215.637848 
	C680.482971,219.120255 672.168762,227.121048 665.038025,236.440323 
	C659.171875,244.106842 653.945923,252.260330 648.180542,260.007721 
	C643.271362,266.604584 637.680664,272.529663 629.611267,275.417419 
	C627.089478,276.319824 624.591675,276.860992 621.519104,276.399078 
	C621.288269,270.133179 623.330200,264.621704 624.828064,259.105408 
	C630.642456,237.692490 640.387573,218.705292 659.207336,205.623627 
	C672.328979,196.502701 687.138184,192.458191 702.892700,191.763474 
	C712.371338,191.345490 721.884094,191.410172 731.751465,192.965485 
z"/>
<path fill="#000000" opacity="1.000000" stroke="none" 
	d="
M336.285278,397.647827 
	C321.202026,372.127075 312.591248,344.960083 310.655212,315.711273 
	C310.435425,312.390991 310.142761,309.075623 309.906891,305.756317 
	C309.687195,302.664734 311.046265,301.101166 314.248596,301.112000 
	C322.739594,301.140656 331.231323,301.145050 339.721710,301.056915 
	C343.067322,301.022156 343.739014,303.237518 344.395538,305.812012 
	C349.047821,324.054749 354.822876,341.915802 362.523285,359.129395 
	C366.747345,368.571838 371.827545,377.538116 377.174561,386.370331 
	C378.001862,387.736877 379.450745,388.865784 379.152283,390.738220 
	C377.847107,391.902435 376.609344,390.986633 375.365875,390.748566 
	C365.245605,388.811188 357.107452,398.255890 360.399689,408.069397 
	C363.108582,416.144165 368.152679,422.706299 373.654602,429.016418 
	C382.299957,438.931763 392.395996,447.485443 400.603455,457.804352 
	C401.691162,459.171875 403.136261,460.406616 403.267029,463.697937 
	C374.840088,447.108826 352.998413,425.279205 336.285278,397.647827 
z"/>
</svg>